<?xml version="1.0" standalone="no"?>
<!DOCTYPE svg PUBLIC "-//W3C//DTD SVG 20010904//EN"
 "http://www.w3.org/TR/2001/REC-SVG-20010904/DTD/svg10.dtd">
<svg version="1.0" xmlns="http://www.w3.org/2000/svg"
 width="2000.000000pt" height="2000.000000pt" viewBox="0 0 2000.000000 2000.000000"
 preserveAspectRatio="xMidYMid meet">

<g transform="translate(0.000000,2000.000000) scale(0.100000,-0.100000)"
fill="#000000" stroke="none">
<path d="M4857 15820 c-314 -53 -574 -292 -664 -610 -16 -60 -18 -112 -18
-625 0 -552 0 -561 23 -638 24 -83 84 -210 126 -267 118 -158 294 -276 481
-321 78 -18 179 -19 5196 -19 l5115 0 83 21 c156 39 278 109 390 222 104 105
172 222 213 364 23 77 23 86 23 638 0 622 1 607 -70 762 -102 221 -282 375
-531 456 l-69 22 -5125 1 c-2819 1 -5146 -2 -5173 -6z"/>
<path d="M4925 11660 c-349 -32 -628 -266 -727 -607 -23 -77 -23 -86 -23 -638
0 -513 2 -565 18 -625 84 -296 307 -517 602 -596 68 -19 206 -19 5205 -19
4999 0 5137 0 5205 19 153 41 292 123 396 232 96 102 146 188 195 334 l29 85
0 565 c0 557 0 566 -23 643 -85 296 -303 508 -605 590 l-82 22 -5055 1 c-2780
1 -5091 -2 -5135 -6z"/>
<path d="M4875 7489 c-128 -19 -272 -80 -382 -163 -157 -118 -270 -303 -309
-504 -20 -106 -20 -1037 0 -1144 67 -349 349 -617 701 -668 46 -6 1814 -10
5115 -10 3301 0 5069 4 5115 10 352 51 634 319 701 668 20 107 20 1038 0 1144
-39 201 -152 385 -309 504 -72 54 -213 124 -307 150 -63 18 -230 19 -5165 20
-2877 1 -5126 -2 -5160 -7z"/>
</g>
</svg>
